<svg xmlns="http://www.w3.org/2000/svg" viewBox="0 0 512 512" width="100%" height="100%">
  <defs>
    <!-- Premium Gradient -->
    <linearGradient id="neon-glow" x1="0%" y1="0%" x2="100%" y2="100%">
      <stop offset="0%" stop-color="#3b82f6" />
      <stop offset="100%" stop-color="#8b5cf6" />
    </linearGradient>
    <filter id="shadow" x="-10%" y="-10%" width="120%" height="120%">
      <feDropShadow dx="0" dy="8" stdDeviation="6" flood-color="#000000" flood-opacity="0.3"/>
    </filter>
  </defs>
  
  <!-- Outer rounded backdrop -->
  <rect width="512" height="512" rx="128" fill="#0f172a" />
  
  <!-- Outer glow border -->
  <rect x="16" y="16" width="480" height="480" rx="112" fill="none" stroke="url(#neon-glow)" stroke-width="12" opacity="0.6"/>

  <!-- Chess Knight Icon -->
  <g filter="url(#shadow)">
    <path d="M152 384c0 13.3 10.7 24 24 24h160c13.3 0 24-10.7 24-24v-8c0-11-6.1-21-16-25.9-25.1-12.6-43.2-31.5-54.3-56.1h38.3c13.3 0 24-10.7 24-24v-40c0-13.3-10.7-24-24-24h-16.5c-4.4-17.7-18.4-32.3-37-37.4 12-14.7 18.5-33.3 18.5-52.6 0-48.6-39.4-88-88-88s-88 39.4-88 88c0 19.3 6.5 37.9 18.5 52.6-18.6 5.1-32.6 19.7-37 37.4H152c-13.3 0-24 10.7-24 24v40c0 13.3 10.7 24 24 24h38.3c-11.1 24.6-29.2 43.5-54.3 56.1-9.9 4.9-16 14.9-16 25.9v8z" fill="url(#neon-glow)" transform="matrix(1.1 0 0 1.1 32 16)"/>
  </g>
</svg>